<?xml version="1.0" standalone="no"?>
<!DOCTYPE svg PUBLIC "-//W3C//DTD SVG 20010904//EN"
 "http://www.w3.org/TR/2001/REC-SVG-20010904/DTD/svg10.dtd">
<svg version="1.0" xmlns="http://www.w3.org/2000/svg"
 width="1535.000000pt" height="1535.000000pt" viewBox="0 0 1535.000000 1535.000000"
 preserveAspectRatio="xMidYMid meet">
<metadata>
Created by potrace 1.11, written by Peter Selinger 2001-2013
</metadata>
<g transform="translate(0.000000,1535.000000) scale(0.100000,-0.100000)"
fill="#000000" stroke="none">
<path d="M0 7675 l0 -7675 7675 0 7675 0 0 7675 0 7675 -7675 0 -7675 0 0
-7675z m8600 5435 c1491 -94 2866 -787 3815 -1925 554 -664 946 -1496 1099
-2335 57 -311 76 -543 75 -889 -1 -213 -11 -439 -17 -380 -130 1279 -656 2412
-1527 3284 -644 645 -1446 1107 -2320 1335 -439 115 -821 164 -1290 164 -564
0 -1067 -81 -1587 -254 -613 -205 -1128 -493 -1643 -921 -140 -116 -472 -450
-595 -599 -574 -693 -942 -1488 -1085 -2345 -45 -271 -56 -407 -62 -756 -6
-365 -2 -434 25 -425 9 3 69 23 132 45 151 53 323 96 495 123 203 33 576 32
785 -1 643 -100 1170 -384 1595 -856 251 -278 442 -618 543 -965 28 -98 62
-248 62 -274 0 -6 -27 39 -59 99 -158 300 -303 504 -516 724 -412 426 -889
680 -1470 782 -171 30 -522 37 -695 15 -441 -58 -870 -232 -1197 -484 -840
-651 -1207 -1730 -949 -2787 93 -380 295 -794 540 -1105 49 -63 50 -64 16 -41
-125 87 -323 275 -437 416 -571 707 -742 1679 -453 2570 163 501 474 962 870
1289 52 44 96 82 98 87 2 4 -8 81 -22 171 -44 285 -59 480 -58 783 0 154 5
348 11 430 85 1124 517 2179 1257 3070 138 166 511 539 679 679 360 299 697
517 1110 721 861 424 1816 615 2775 555z m61 -6900 c496 -1403 592 -1699 729
-2237 6 -24 14 -43 18 -43 5 0 16 33 27 73 97 385 289 950 693 2047 l319 865
301 3 302 2 4 -22 c3 -13 52 -799 111 -1748 58 -949 109 -1760 112 -1802 l6
-78 -231 0 -231 0 -5 43 c-6 45 -87 1476 -111 1957 -20 405 -35 834 -35 1025
0 87 -4 155 -8 150 -5 -6 -31 -84 -57 -175 -99 -333 -309 -940 -675 -1947
l-375 -1033 -182 0 c-101 0 -183 2 -183 4 0 2 -151 447 -335 990 -415 1222
-525 1569 -634 2000 -22 87 -43 161 -46 164 -3 3 -5 -28 -5 -69 0 -95 -16
-518 -35 -919 -16 -340 -25 -482 -88 -1510 l-42 -675 -229 -3 -229 -2 6 47 c3
27 61 842 127 1813 67 971 124 1771 126 1778 3 10 69 12 305 10 l301 -3 249
-705z m3819 -1115 l0 -1825 -235 0 -235 0 0 1825 0 1825 235 0 235 0 0 -1825z
m-8810 864 c438 -1603 1618 -2913 3215 -3569 94 -38 167 -70 164 -70 -18 -1
-222 45 -354 80 -642 167 -1235 456 -1780 865 -389 292 -750 653 -1050 1050
-288 380 -553 858 -717 1293 l-40 107 78 73 c137 128 408 319 437 309 6 -2 27
-64 47 -138z"/>
</g>
</svg>
